<?xml version="1.0" encoding="UTF-8"?>
<svg width="21px" height="20px" viewBox="0 0 21 20" version="1.1" xmlns="http://www.w3.org/2000/svg" xmlns:xlink="http://www.w3.org/1999/xlink">
    <!-- Generator: Sketch Beta 44 (41325) - http://www.bohemiancoding.com/sketch -->
    <title>ic_wxpay_bottom copy@3x</title>
    <desc>Created with Sketch Beta.</desc>
    <defs></defs>
    <g id="Page-1" stroke="none" stroke-width="1" fill="none" fill-rule="evenodd">
        <g id="确认订单_有地址1" transform="translate(-271.000000, -521.000000)" fill="#7ED321">
            <g id="sidemenu1" transform="translate(0.000000, 504.000000)">
                <g id="ic_weixin" transform="translate(271.000000, 17.000000)">
                    <path d="M6.5625,7.51235186 L4.98722387,11.1591981 C4.38113604,12.8922806 5.5118557,11.9406326 5.5118557,11.9406326 C5.5118557,11.9406326 6.48196439,11.2124467 7.21828977,10.7687084 C7.95415495,10.32497 8.7931057,10.6385451 8.7931057,10.6385451 L19.0915366,15.3544593 C17.191357,17.6996731 14.05277,19.2334147 10.4995398,19.2334147 C4.70051719,19.2334147 -1.77635684e-15,15.1519326 -1.77635684e-15,10.1169819 C-1.77635684e-15,7.2210775 1.55640779,4.64329929 3.98075912,2.97302278 L3.54356593,0.479441075 C3.54356593,0.479441075 3.33049176,-0.248289737 4.06911817,0.0894064869 C4.57258065,0.31924017 5.85562764,1.14436587 6.61956522,1.64635905 C7.82023581,1.23129306 9.12859398,1.00054914 10.5,1.00054914 C16.2985624,1.00054914 21,5.08203131 21,10.1169819 C21,11.5756294 20.6037649,12.952811 19.9019548,14.1752532 C16.621165,12.2168881 8.98915234,7.66527091 8.00569776,7.12231727 C6.74888236,6.4268997 6.5625,7.51235186 6.5625,7.51235186 Z" id="ic_wxpay_bottom-copy" transform="translate(10.500000, 9.616707) scale(1, -1) translate(-10.500000, -9.616707) "></path>
                </g>
            </g>
        </g>
    </g>
</svg>