<?xml version="1.0" encoding="UTF-8" standalone="no"?>
<svg width="67px" height="62px" viewBox="0 0 67 62" version="1.1" xmlns="http://www.w3.org/2000/svg" xmlns:xlink="http://www.w3.org/1999/xlink">
    <!-- Generator: Sketch Beta 40 (33762) - http://www.bohemiancoding.com/sketch -->
    <title>Group 3</title>
    <desc>Created with Sketch Beta.</desc>
    <defs></defs>
    <g id="微信h5" stroke="none" stroke-width="1" fill="none" fill-rule="evenodd">
        <g id="超时" transform="translate(-142.000000, -262.000000)">
            <g id="Group-2" transform="translate(30.000000, 164.000000)">
                <g id="Group-3" transform="translate(112.000000, 93.000000)">
                    <g id="Page-1" transform="translate(0.000000, 28.000000)" fill="#CBCCCC">
                        <path d="M17.1067987,16.5417901 C17.5422298,15.7393763 17.9954643,14.9481671 18.4561291,14.1889084 C18.4647076,14.1717515 18.4741438,14.1554525 18.4835801,14.1391534 C18.6740216,13.8200352 18.8713259,13.5000592 19.0737772,13.1800831 C17.0183815,13.0848624 14.8935005,12.0863313 13.4814882,10.4066715 C12.6794035,9.45360617 12.4177609,7.98411836 12.7445997,6.27100268 C13.1812426,3.97798404 14.5031812,1.93717172 16.1116398,1.07160651 C17.2928918,0.43508581 18.7649532,0.334717991 20.2550293,0.791091322 C22.1474345,1.37185212 23.861408,2.76156039 24.7286889,4.41977401 C25.1018513,5.13864779 25.3223174,5.91499716 25.3875135,6.70164067 C29.1628877,4.18472459 33.6923072,2.82075166 38.3890064,2.82075166 C42.9810486,2.82075166 47.4324043,4.13239607 51.1571656,6.55151786 C51.2386608,5.81891857 51.4565533,5.09918694 51.8082696,4.42234755 C52.6712613,2.76499176 54.3818034,1.3752835 56.272493,0.793664856 C57.7642847,0.333860146 59.2380618,0.433370121 60.4210295,1.07246435 C62.0269146,1.93374034 63.3488531,3.97112128 63.7889274,6.2598507 C64.1191976,7.97639776 63.8592707,9.44931695 63.057186,10.4049558 C61.7026493,12.0099831 59.6884302,13.0025093 57.7102405,13.1654998 C57.9487213,13.545525 58.1734766,13.9306972 58.3836485,14.3193008 C58.4128153,14.3613352 58.4385506,14.4042274 58.4599967,14.4471196 C58.4677173,14.4608451 58.4943105,14.5123158 58.5286243,14.5809434 L58.5972518,14.7173407 C58.6838942,14.8897675 58.7928404,15.1145227 58.9266642,15.400185 L59.0690664,15.7107247 C60.5539954,18.8547252 64.2778988,27.3207937 66.562339,37.531718 C66.6884422,38.0953219 66.3341524,38.6554945 65.7705485,38.7815976 C65.6942003,38.7987545 65.6169943,38.807333 65.5415039,38.807333 C65.0628267,38.807333 64.6313308,38.4762049 64.5223846,37.9889492 C62.284268,27.9839075 58.6341392,19.6868345 57.1689406,16.5831527 L57.0222491,16.2640345 C56.9098715,16.023838 56.8095037,15.8170975 56.7365869,15.6712639 L56.6576652,15.5151362 C56.6542338,15.5099891 56.6490867,15.5014107 56.6439397,15.4902587 C56.6250671,15.4619498 56.6079102,15.4327831 56.5916112,15.4027585 C56.0666103,14.4170951 55.4335209,13.4554513 54.7086422,12.5444203 C54.4204065,12.1824099 54.4049652,11.673708 54.6691814,11.2936829 C54.9333975,10.9127999 55.4172219,10.7532408 55.8555805,10.8990743 C57.6570542,11.4944185 60.0658818,10.7043436 61.4590215,9.05642412 C61.8338996,8.60862923 61.9394144,7.70960808 61.7361053,6.65531706 C61.4204185,5.01254464 60.473358,3.4752871 59.4319347,2.91683026 C58.5492125,2.43986866 57.5601177,2.58656009 56.8867097,2.79415848 C55.5321731,3.21192881 54.2659944,4.23019035 53.6620718,5.39085411 C53.1662376,6.34220378 53.0778796,7.42394583 53.4132969,8.43448678 C53.5591305,8.87627675 53.3969978,9.36095895 53.0143991,9.62603294 C52.6326583,9.89110692 52.1222407,9.86966081 51.7610882,9.57627795 C48.0706407,6.5695326 43.3216129,4.91389251 38.3890064,4.91389251 C33.2985565,4.91389251 28.4311462,6.66646904 24.6823653,9.84821469 C24.3160656,10.1596123 23.7850598,10.1784849 23.3964562,9.89968537 C23.0069948,9.61917018 22.8585876,9.1078948 23.0361615,8.66095775 C23.4607946,7.5963726 23.4024611,6.40396859 22.8757445,5.38828058 C22.2692484,4.22933251 20.9996384,3.20935527 19.643386,2.79415848 C18.969978,2.58570224 17.9825989,2.43986866 17.1024503,2.91511457 C16.0756103,3.4675665 15.1062459,5.04428489 14.7974219,6.66389551 C14.5975441,7.71389731 14.703059,8.60862923 15.0805106,9.05813981 C16.5431356,10.7987065 19.1183851,11.5664774 20.9421628,10.8029957 C21.3848106,10.619417 21.8935125,10.7592457 22.1800326,11.1418444 C22.4674105,11.5253009 22.4579742,12.054591 22.1568708,12.4277534 C21.9561351,12.6765284 21.7614044,12.9295925 21.5709629,13.1835145 C21.5606687,13.2006714 21.5495168,13.2169705 21.5392226,13.2332695 C21.1025797,13.876653 20.6848094,14.5329041 20.2962058,15.1814346 C20.2859117,15.2028807 20.2747597,15.223469 20.261892,15.2431994 C19.8106146,15.9883692 19.3653503,16.7651076 18.9373561,17.5530111 C19.0531032,17.6535314 19.1663623,17.7603182 19.2770864,17.873351 C22.023047,20.6785029 22.1328511,26.1824339 22.1011109,27.8020445 C22.0462088,30.6140591 21.5109138,37.3507128 21.4886098,37.6355172 C21.4448597,38.1836799 20.9867707,38.5997346 20.4471864,38.5997346 C20.4197354,38.5997346 20.3914265,38.5980189 20.3631177,38.5963032 C19.7875039,38.5499796 19.3585816,38.045567 19.4049052,37.4690954 C19.4100523,37.39961 19.9573572,30.5111178 20.0114014,27.7617258 C20.0654456,24.9805936 19.5147094,21.1065673 17.7844368,19.3385496 C17.1968132,18.7389162 16.5294101,18.447249 15.7436245,18.447249 C11.3634699,18.447249 8.01015532,23.0092667 5.96762731,26.8361115 C3.66431454,31.1510698 2.47963114,35.5123518 2.46847916,35.5561019 C2.31835635,36.1145587 1.74274262,36.4431132 1.18771716,36.2947061 C0.630118161,36.1454411 0.299847987,35.5706853 0.449112949,35.0122284 C0.65413781,34.2504624 5.57816586,16.3541082 15.7436245,16.3541082 C16.219138,16.3541082 16.6740091,16.416878 17.1067987,16.5417901 Z M32.0944162,13.9311245 C34.2431663,12.9125 36.5695422,12.5469938 38.2140061,12.5469938 C39.6711607,12.5469938 42.1640449,12.871303 44.4967613,13.8892956 C44.2925776,13.5677946 44.1743105,13.1861851 44.1743105,12.7768962 C44.1743105,11.6308158 45.1016405,10.7017701 46.2460052,10.7017701 C47.3903699,10.7017701 48.3185578,11.6308158 48.3185578,12.7768962 C48.3185578,13.9065676 47.4167582,14.8253746 46.2950234,14.851453 C48.4355726,16.2477563 50.109319,18.4186346 50.1586344,21.7216419 C50.2075316,25.0818192 48.9833873,28.2052315 46.7083834,30.5171227 C44.5131591,32.7492343 41.549306,34.0299963 38.5777322,34.0299963 C38.4421928,34.0299963 38.3066533,34.026565 38.1719717,34.0214179 C34.5106909,33.8747265 31.0638713,32.3366111 28.9527157,29.9054795 C27.0440115,27.7085394 26.2050395,24.823608 26.527589,21.5637985 C26.842464,18.3786582 28.4619401,16.2401751 30.490534,14.848709 C30.4514521,14.850908 30.4120805,14.8520223 30.3724486,14.8520223 C29.2280839,14.8520223 28.299896,13.9229766 28.299896,12.7768962 C28.299896,11.6308158 29.2280839,10.7017701 30.3724486,10.7017701 C31.5168133,10.7017701 32.4441433,11.6308158 32.4441433,12.7768962 C32.4441433,13.2040828 32.3153066,13.6011162 32.0944162,13.9311245 Z M34.5658415,15.2073997 C32.018933,15.9593362 29.0098479,17.707302 28.6078622,21.7696812 C28.3402147,24.4804702 28.9861717,26.7554741 30.5294341,28.5312124 C32.2700008,30.5351374 35.1583636,31.8056053 38.2551827,31.9291349 C38.3624132,31.9334241 38.4705017,31.9359977 38.5777322,31.9359977 C40.9934226,31.9359977 43.4142601,30.8825645 45.2191652,29.0476349 C47.0978449,27.1389306 48.1092437,24.547382 48.0680671,21.7533822 C48.030322,19.1970052 46.7083834,17.2634235 44.1391388,16.0058233 C43.4334821,15.6601506 42.6907409,15.3957104 41.9688452,15.1959595 C41.6168909,16.2255023 40.220732,18.2887022 38.3092269,18.3108517 C36.4527417,18.3325134 34.6405256,16.3418118 34.5658415,15.2073997 Z M37.8991771,29.1505762 C37.7310396,29.1505762 37.5671913,29.1214095 37.4110636,29.0656496 C36.9358177,28.8949385 36.5780965,28.4788839 36.431405,27.9255741 C36.3061597,27.4563331 36.3387578,26.9167489 36.5223366,26.4063313 C36.9298127,25.2705451 38.0055499,24.5979949 38.899424,24.9248337 C39.3746699,25.0955448 39.7315332,25.5115994 39.8790825,26.0649092 C40.00347,26.535008 39.9717297,27.0737344 39.788151,27.584152 C39.451018,28.5217761 38.6918256,29.1505762 37.8991771,29.1505762 Z M38.4250359,26.2381938 C38.2903543,26.2381938 37.9935401,26.4320667 37.8331231,26.8790037 C37.7464808,27.1217737 37.7258925,27.3714065 37.7782211,27.5661372 C37.8099613,27.6853776 37.8588585,27.7437111 37.8820203,27.7522895 L37.8991771,27.754863 C38.015844,27.754863 38.3152318,27.5601323 38.4765066,27.1114796 C38.5640067,26.8695674 38.5837371,26.6182189 38.5322665,26.4234882 C38.5005262,26.3042478 38.4516291,26.2467722 38.4276094,26.2381938 L38.4250359,26.2381938 Z" id="Combined-Shape"></path>
                    </g>
                    <text id="?" font-family="STYuanti-SC-Bold, Yuanti SC" font-size="20" font-weight="bold" fill="#CBCCCB">
                        <tspan x="33.36" y="21">?</tspan>
                    </text>
                    <text id="?-copy-2" transform="translate(51.936059, 15.946466) rotate(-345.000000) translate(-51.936059, -15.946466) " font-family="STYuanti-SC-Bold, Yuanti SC" font-size="20" font-weight="bold" fill="#CBCCCB">
                        <tspan x="46.7960587" y="22.9464663">?</tspan>
                    </text>
                    <text id="?-copy" transform="translate(25.014869, 16.098662) rotate(-15.000000) translate(-25.014869, -16.098662) " font-family="STYuanti-SC-Bold, Yuanti SC" font-size="20" font-weight="bold" fill="#CBCCCB">
                        <tspan x="19.8748689" y="23.0986617">?</tspan>
                    </text>
                </g>
            </g>
        </g>
    </g>
</svg>